<svg width="80" height="80" viewBox="0 0 80 80" fill="none" xmlns="http://www.w3.org/2000/svg">
  <!-- Angular frame — cyan stroke -->
  <path d="M10 0 L70 0 L80 10 L80 70 L70 80 L10 80 L0 70 L0 10 Z" stroke="#00f0ff" stroke-width="1.5" fill="#0d0d14"/>
  <!-- Corner accent lines -->
  <line x1="2" y1="12" x2="12" y2="2" stroke="#00f0ff" stroke-width="0.5" opacity="0.25"/>
  <line x1="68" y1="2" x2="78" y2="12" stroke="#00f0ff" stroke-width="0.5" opacity="0.25"/>
  <line x1="2" y1="68" x2="12" y2="78" stroke="#00f0ff" stroke-width="0.5" opacity="0.25"/>
  <line x1="68" y1="78" x2="78" y2="68" stroke="#00f0ff" stroke-width="0.5" opacity="0.25"/>
  <!-- Grid lines -->
  <line x1="16" y1="16" x2="64" y2="16" stroke="#00f0ff" stroke-width="0.5" opacity="0.12"/>
  <line x1="16" y1="28" x2="64" y2="28" stroke="#00f0ff" stroke-width="0.5" opacity="0.12"/>
  <line x1="16" y1="40" x2="64" y2="40" stroke="#00f0ff" stroke-width="0.5" opacity="0.12"/>
  <line x1="16" y1="52" x2="64" y2="52" stroke="#00f0ff" stroke-width="0.5" opacity="0.12"/>
  <line x1="16" y1="64" x2="64" y2="64" stroke="#00f0ff" stroke-width="0.5" opacity="0.12"/>
  <line x1="16" y1="16" x2="16" y2="64" stroke="#00f0ff" stroke-width="0.5" opacity="0.12"/>
  <line x1="28" y1="16" x2="28" y2="64" stroke="#00f0ff" stroke-width="0.5" opacity="0.12"/>
  <line x1="40" y1="16" x2="40" y2="64" stroke="#00f0ff" stroke-width="0.5" opacity="0.12"/>
  <line x1="52" y1="16" x2="52" y2="64" stroke="#00f0ff" stroke-width="0.5" opacity="0.12"/>
  <line x1="64" y1="16" x2="64" y2="64" stroke="#00f0ff" stroke-width="0.5" opacity="0.12"/>
  <!-- Lit cells forming "e" -->
  <rect x="17" y="17" width="10" height="10" fill="#00f0ff" opacity="0.85"/>
  <rect x="29" y="17" width="10" height="10" fill="#00f0ff" opacity="0.85"/>
  <rect x="41" y="17" width="10" height="10" fill="#00f0ff" opacity="0.6"/>
  <rect x="17" y="29" width="10" height="10" fill="#00f0ff" opacity="0.85"/>
  <rect x="17" y="41" width="10" height="10" fill="#00f0ff" opacity="0.75"/>
  <rect x="29" y="41" width="10" height="10" fill="#00f0ff" opacity="0.75"/>
  <rect x="41" y="41" width="10" height="10" fill="#00f0ff" opacity="0.5"/>
  <rect x="17" y="53" width="10" height="10" fill="#00f0ff" opacity="0.85"/>
  <rect x="29" y="53" width="10" height="10" fill="#00f0ff" opacity="0.85"/>
  <rect x="41" y="53" width="10" height="10" fill="#00f0ff" opacity="0.6"/>
  <!-- Amber cursor cell -->
  <rect x="53" y="53" width="10" height="10" fill="#ffb800" opacity="0.9"/>
</svg>
