<svg width="200" height="48" viewBox="0 0 200 48" fill="none" xmlns="http://www.w3.org/2000/svg">
  <!-- Icon: Pixel Grid "e" -->
  <g>
    <path d="M6 0 L42 0 L48 6 L48 42 L42 48 L6 48 L0 42 L0 6 Z" stroke="#00f0ff" stroke-width="1.2" fill="#0d0d14"/>
    <line x1="1.2" y1="7.2" x2="7.2" y2="1.2" stroke="#00f0ff" stroke-width="0.4" opacity="0.25"/>
    <line x1="40.8" y1="1.2" x2="46.8" y2="7.2" stroke="#00f0ff" stroke-width="0.4" opacity="0.25"/>
    <line x1="1.2" y1="40.8" x2="7.2" y2="46.8" stroke="#00f0ff" stroke-width="0.4" opacity="0.25"/>
    <line x1="40.8" y1="46.8" x2="46.8" y2="40.8" stroke="#00f0ff" stroke-width="0.4" opacity="0.25"/>
    <line x1="9.6" y1="9.6" x2="38.4" y2="9.6" stroke="#00f0ff" stroke-width="0.3" opacity="0.12"/>
    <line x1="9.6" y1="16.8" x2="38.4" y2="16.8" stroke="#00f0ff" stroke-width="0.3" opacity="0.12"/>
    <line x1="9.6" y1="24" x2="38.4" y2="24" stroke="#00f0ff" stroke-width="0.3" opacity="0.12"/>
    <line x1="9.6" y1="31.2" x2="38.4" y2="31.2" stroke="#00f0ff" stroke-width="0.3" opacity="0.12"/>
    <line x1="9.6" y1="38.4" x2="38.4" y2="38.4" stroke="#00f0ff" stroke-width="0.3" opacity="0.12"/>
    <line x1="9.6" y1="9.6" x2="9.6" y2="38.4" stroke="#00f0ff" stroke-width="0.3" opacity="0.12"/>
    <line x1="16.8" y1="9.6" x2="16.8" y2="38.4" stroke="#00f0ff" stroke-width="0.3" opacity="0.12"/>
    <line x1="24" y1="9.6" x2="24" y2="38.4" stroke="#00f0ff" stroke-width="0.3" opacity="0.12"/>
    <line x1="31.2" y1="9.6" x2="31.2" y2="38.4" stroke="#00f0ff" stroke-width="0.3" opacity="0.12"/>
    <line x1="38.4" y1="9.6" x2="38.4" y2="38.4" stroke="#00f0ff" stroke-width="0.3" opacity="0.12"/>
    <rect x="10.2" y="10.2" width="6" height="6" fill="#00f0ff" opacity="0.85"/>
    <rect x="17.4" y="10.2" width="6" height="6" fill="#00f0ff" opacity="0.85"/>
    <rect x="24.6" y="10.2" width="6" height="6" fill="#00f0ff" opacity="0.6"/>
    <rect x="10.2" y="17.4" width="6" height="6" fill="#00f0ff" opacity="0.85"/>
    <rect x="10.2" y="24.6" width="6" height="6" fill="#00f0ff" opacity="0.75"/>
    <rect x="17.4" y="24.6" width="6" height="6" fill="#00f0ff" opacity="0.75"/>
    <rect x="24.6" y="24.6" width="6" height="6" fill="#00f0ff" opacity="0.5"/>
    <rect x="10.2" y="31.8" width="6" height="6" fill="#00f0ff" opacity="0.85"/>
    <rect x="17.4" y="31.8" width="6" height="6" fill="#00f0ff" opacity="0.85"/>
    <rect x="24.6" y="31.8" width="6" height="6" fill="#00f0ff" opacity="0.6"/>
    <rect x="31.8" y="31.8" width="6" height="6" fill="#ffb800" opacity="0.9"/>
  </g>
  <!-- Wordmark: single text run so no spacing issues -->
  <text x="60" y="33" font-family="'JetBrains Mono', monospace" font-weight="700" font-size="26" letter-spacing="-0.5">
    <tspan fill="#00f0ff">ekkOS</tspan><tspan fill="#ffb800">_</tspan>
  </text>
  <text x="156" y="18" font-family="'JetBrains Mono', monospace" font-weight="400" font-size="8" fill="#4a4a5e">TM</text>
</svg>
